<?xml version="1.0" encoding="UTF-8"?>
<svg xmlns="http://www.w3.org/2000/svg" xmlns:xlink="http://www.w3.org/1999/xlink" viewBox="0 0 64 64" width="64px" height="64px">
<g id="surface4260201">
<path style=" stroke:none;fill-rule:nonzero;fill:rgb(100%,100%,100%);fill-opacity:1;" d="M 32.5 6 C 32 6 31.5 6.25 31.25 6.699219 C 30.550781 7.75 29.5 8.449219 28.300781 8.652344 C 27.101562 8.851562 25.851562 8.601562 24.851562 7.851562 C 24.449219 7.550781 23.898438 7.449219 23.449219 7.652344 C 22.949219 7.800781 22.601562 8.199219 22.5 8.699219 L 22.402344 9.101562 C 22.199219 10.050781 21.550781 10.851562 20.652344 11.25 C 19.75 11.648438 18.75 11.648438 17.851562 11.199219 L 14.601562 9.5 C 14.050781 9.199219 13.402344 9.300781 12.902344 9.699219 C 12.449219 10.101562 12.300781 10.75 12.5 11.351562 L 13.550781 14.199219 C 13.851562 15 14.699219 15.351562 15.5 15.101562 C 16.050781 14.898438 16.449219 14.398438 16.5 13.800781 L 16.550781 13.800781 C 18.25 14.648438 20.199219 14.699219 21.949219 13.902344 C 23.199219 13.300781 24.199219 12.351562 24.800781 11.152344 C 26.050781 11.652344 27.449219 11.800781 28.851562 11.550781 C 30.25 11.300781 31.5 10.648438 32.550781 9.75 C 33.601562 10.648438 34.851562 11.300781 36.25 11.550781 C 37.648438 11.800781 39.050781 11.648438 40.351562 11.101562 C 41 12.300781 42 13.351562 43.199219 14.050781 C 44.398438 14.75 45.800781 15.101562 47.199219 15.050781 C 47.398438 16.398438 47.949219 17.75 48.851562 18.800781 C 49.75 19.851562 50.949219 20.648438 52.25 21.101562 C 51.949219 22.449219 52.050781 23.898438 52.550781 25.199219 C 53.050781 26.5 53.851562 27.648438 54.949219 28.5 C 54.199219 29.648438 53.800781 31.050781 53.800781 32.449219 C 53.800781 33.851562 54.199219 35.199219 54.949219 36.402344 C 53.800781 37.300781 52.949219 38.449219 52.449219 39.75 C 51.75 41.699219 51.898438 43.851562 52.800781 45.652344 C 52.851562 45.75 52.898438 45.851562 53 45.949219 L 58.101562 52.050781 C 58.398438 52.398438 58.800781 52.601562 59.25 52.601562 C 59.601562 52.601562 59.949219 52.5 60.199219 52.25 C 60.851562 51.699219 60.902344 50.75 60.402344 50.152344 L 55.449219 44.199219 C 54.949219 43.101562 54.898438 41.898438 55.300781 40.800781 C 55.75 39.648438 56.601562 38.699219 57.75 38.25 C 58.199219 38.050781 58.550781 37.652344 58.652344 37.152344 C 58.75 36.652344 58.550781 36.148438 58.199219 35.800781 C 57.300781 34.949219 56.800781 33.800781 56.800781 32.550781 C 56.800781 31.300781 57.300781 30.148438 58.199219 29.300781 C 58.550781 28.949219 58.75 28.449219 58.652344 27.949219 C 58.550781 27.449219 58.25 27.050781 57.75 26.851562 C 56.601562 26.351562 55.75 25.449219 55.300781 24.300781 C 54.851562 23.148438 54.949219 21.898438 55.5 20.75 C 55.75 20.300781 55.699219 19.75 55.449219 19.300781 C 55.199219 18.851562 54.75 18.601562 54.25 18.550781 C 53 18.5 51.898438 17.898438 51.101562 16.949219 C 50.300781 16 49.949219 14.800781 50.101562 13.550781 C 50.148438 13.050781 49.949219 12.550781 49.550781 12.199219 C 49.148438 11.851562 48.652344 11.75 48.152344 11.902344 C 46.949219 12.25 45.699219 12.101562 44.652344 11.5 C 43.601562 10.898438 42.800781 9.851562 42.550781 8.652344 C 42.449219 8.152344 42.101562 7.75 41.601562 7.601562 C 41.101562 7.449219 40.601562 7.5 40.199219 7.800781 C 39.199219 8.550781 38 8.851562 36.75 8.601562 C 35.550781 8.398438 34.5 7.699219 33.800781 6.652344 C 33.5 6.25 33 6 32.5 6 Z M 53.050781 7.089844 C 52.664062 7.089844 52.273438 7.226562 52 7.5 C 51.699219 7.800781 51.550781 8.148438 51.550781 8.550781 C 51.550781 8.949219 51.699219 9.351562 52 9.597656 C 52.300781 9.898438 52.648438 10.050781 53.050781 10.050781 C 53.449219 10.050781 53.851562 9.851562 54.097656 9.597656 C 54.398438 9.300781 54.550781 8.949219 54.550781 8.550781 C 54.550781 8.148438 54.398438 7.75 54.097656 7.5 C 53.824219 7.226562 53.4375 7.089844 53.050781 7.089844 Z M 32.546875 16.199219 C 31.457031 16.203125 30.355469 16.320312 29.25 16.550781 C 28.449219 16.699219 27.898438 17.5 28.097656 18.300781 C 28.25 19.101562 29.050781 19.648438 29.851562 19.449219 C 31.351562 19.148438 32.851562 19.101562 34.25 19.300781 C 39.101562 21.75 42.402344 26.699219 42.402344 32.449219 C 42.402344 38.148438 39.101562 43.148438 34.300781 45.601562 C 27.398438 46.550781 20.800781 42.050781 19.402344 35.152344 C 19.199219 34.402344 18.449219 33.851562 17.597656 34 C 16.800781 34.148438 16.25 34.949219 16.449219 35.75 C 18 43.398438 24.851562 48.699219 32.449219 48.699219 C 33.550781 48.699219 34.648438 48.601562 35.75 48.351562 C 44.601562 46.550781 50.351562 37.902344 48.550781 29.152344 C 46.976562 21.449219 40.15625 16.160156 32.546875 16.199219 Z M 10.710938 18.578125 C 10.515625 18.59375 10.324219 18.648438 10.152344 18.75 C 9.402344 19.101562 9.101562 20.050781 9.5 20.75 C 10.050781 21.851562 10.148438 23.101562 9.699219 24.300781 C 9.25 25.449219 8.398438 26.398438 7.25 26.851562 C 6.800781 27.050781 6.449219 27.449219 6.351562 27.949219 C 6.25 28.449219 6.449219 28.949219 6.800781 29.300781 C 7.699219 30.148438 8.199219 31.300781 8.199219 32.550781 C 8.199219 33.800781 7.699219 34.949219 6.800781 35.800781 C 6.449219 36.148438 6.25 36.652344 6.351562 37.152344 C 6.449219 37.652344 6.75 38.050781 7.25 38.25 C 8.398438 38.75 9.25 39.648438 9.699219 40.800781 C 10.148438 41.949219 10.050781 43.199219 9.5 44.351562 C 9.148438 45.050781 9.449219 45.949219 10.152344 46.351562 C 10.351562 46.449219 10.601562 46.5 10.800781 46.5 C 11.351562 46.5 11.902344 46.199219 12.152344 45.699219 C 13.050781 43.851562 13.199219 41.699219 12.5 39.800781 C 12 38.5 11.199219 37.351562 10.101562 36.5 C 10.851562 35.351562 11.25 33.949219 11.25 32.550781 C 11.25 31.148438 10.851562 29.800781 10.101562 28.601562 C 11.199219 27.75 12.050781 26.601562 12.5 25.300781 C 13.199219 23.351562 13.050781 21.199219 12.152344 19.402344 C 11.886719 18.835938 11.289062 18.527344 10.710938 18.578125 Z M 23.050781 27.089844 C 22.664062 27.089844 22.273438 27.226562 22 27.5 C 21.699219 27.800781 21.550781 28.148438 21.550781 28.550781 C 21.550781 28.949219 21.699219 29.351562 22 29.597656 C 22.300781 29.851562 22.648438 30.050781 23.050781 30.050781 C 23.449219 30.050781 23.851562 29.851562 24.097656 29.597656 C 24.398438 29.300781 24.550781 28.949219 24.550781 28.550781 C 24.550781 28.148438 24.398438 27.75 24.097656 27.5 C 23.824219 27.226562 23.4375 27.089844 23.050781 27.089844 Z M 14.320312 49.476562 C 13.734375 49.429688 13.164062 49.738281 12.902344 50.300781 L 10.050781 55.949219 C 9.75 56.550781 9.898438 57.300781 10.351562 57.75 C 10.898438 58.199219 11.648438 58.300781 12.199219 57.949219 L 18.402344 54.148438 C 19.152344 53.699219 20 53.648438 20.800781 53.949219 C 21.601562 54.300781 22.148438 54.949219 22.351562 55.800781 L 22.5 56.402344 C 22.601562 56.902344 22.949219 57.300781 23.449219 57.449219 C 23.898438 57.601562 24.449219 57.550781 24.851562 57.25 C 25.851562 56.5 27.050781 56.199219 28.300781 56.449219 C 29.5 56.648438 30.550781 57.351562 31.25 58.402344 C 31.5 58.75 32 59 32.5 59 C 33 59 33.5 58.75 33.75 58.300781 C 34.449219 57.25 35.5 56.550781 36.699219 56.351562 C 37.898438 56.148438 39.152344 56.402344 40.152344 57.152344 C 40.550781 57.449219 41.101562 57.550781 41.550781 57.351562 C 42.050781 57.199219 42.398438 56.800781 42.5 56.300781 C 42.800781 55.101562 43.550781 54.101562 44.601562 53.449219 C 45.699219 52.851562 46.949219 52.699219 48.101562 53.050781 C 48.898438 53.300781 49.75 52.851562 49.949219 52.050781 C 50.199219 51.25 49.75 50.398438 48.949219 50.199219 C 47 49.601562 44.851562 49.851562 43.050781 50.898438 C 41.851562 51.601562 40.851562 52.648438 40.199219 53.847656 C 38.898438 53.347656 37.5 53.199219 36.101562 53.398438 C 34.699219 53.648438 33.449219 54.300781 32.402344 55.199219 C 31.351562 54.300781 30.101562 53.648438 28.699219 53.398438 C 27.351562 53.148438 25.949219 53.300781 24.699219 53.800781 C 24.101562 52.601562 23.101562 51.648438 21.851562 51.148438 C 20.148438 50.449219 18.300781 50.601562 16.75 51.550781 L 15.101562 52.550781 L 15.550781 51.648438 C 15.949219 50.902344 15.652344 50 14.902344 49.648438 C 14.714844 49.550781 14.515625 49.492188 14.320312 49.476562 Z M 14.320312 49.476562 "/>
</g>
</svg>